# xmcd
#
# Track frame offsets:
#	150
#	9993
#	31671
#	53010
#	73797
#	97399
#	117845
#	139346
#	155933
#	179524
#
# Disc length: 2707 seconds
#
# Revision: 0
# Processed by: cddbd v1.5.2PL0 Copyright (c) Steve Scherf et al.
# Submitted via: audiograbber 1.83.01
#
DISCID=8c0a910a
DTITLE=TRW - Rivers Of Paradise
DYEAR=2007
DGENRE=Rock
TTITLE0=Set My Spirit Free
TTITLE1=Rivers Of Paradise
TTITLE2=Hold On
TTITLE3=Indiscretion
TTITLE4=Gonna Be Some Changes
TTITLE5=Only A Letter
TTITLE6=Hard Time Love
TTITLE7=One Good Woman
TTITLE8=Love Comes Callin
TTITLE9=Alimony Blues
EXTD=
EXTT0=
EXTT1=
EXTT2=
EXTT3=
EXTT4=
EXTT5=
EXTT6=
EXTT7=
EXTT8=
EXTT9=
PLAYORDER=
